<svg viewBox="0 0 1004 754" xmlns="http://www.w3.org/2000/svg">
  <!-- Projets -->
  <path id="Projets" class="inactive" fill="rgba(128,128,128,0.5)" d="M 141,37 L 141,37 L 127,51 L 120,73 L 116,83 L 108,97 L 104,111 L 91,126 L 79,150 L 70,163 L 74,175 L 64,185 L 60,200 L 61,213 L 63,228 L 79,238 L 78,250 L 91,256 L 96,271 L 109,283 L 116,295 L 131,295 L 148,308 L 173,305 L 194,284 L 204,267 L 225,266 L 244,254 L 260,254 L 282,258 L 294,264 L 312,257 L 313,234 L 315,215 L 331,199 L 342,183 L 344,167 L 336,157 L 327,142 L 316,131 L 315,115 L 319,97 L 329,85 L 332,67 L 327,50 L 308,53 L 292,43 L 280,42 L 266,39 L 258,29 L 249,38 L 240,29 L 227,26 L 213,31 L 201,24 L 192,31 L 182,25 L 160,32 Z" />
  <!-- Créatif -->
  <path id="Creatif" class="inactive" fill="rgba(128,128,128,0.5)" d="M 332,52 L 332,52 L 337,71 L 335,88 L 322,109 L 321,122 L 335,138 L 344,154 L 351,169 L 353,185 L 345,194 L 336,203 L 349,214 L 370,220 L 392,216 L 403,205 L 419,200 L 428,198 L 428,198 L 421,217 L 418,232 L 418,245 L 422,261 L 436,256 L 448,244 L 464,242 L 483,237 L 499,240 L 509,228 L 527,214 L 547,207 L 555,192 L 553,174 L 548,158 L 548,146 L 558,137 L 573,121 L 583,113 L 573,108 L 574,97 L 573,83 L 572,68 L 562,63 L 561,53 L 550,55 L 536,41 L 526,48 L 516,41 L 502,42 L 493,38 L 481,42 L 466,37 L 456,45 L 436,39 L 428,46 L 428,46 L 413,41 L 405,48 L 393,57 L 384,67 L 370,60 L 361,48 L 348,49 Z" />
  <!-- Sport -->
  <path id="Sport" class="inactive" fill="rgba(128,128,128,0.5)" d="M 587,118 L 587,118 L 582,133 L 569,142 L 554,150 L 558,167 L 562,183 L 562,195 L 555,209 L 542,217 L 524,226 L 522,235 L 547,241 L 555,245 L 566,255 L 575,276 L 591,294 L 605,305 L 619,309 L 631,314 L 630,337 L 642,338 L 630,337 L 660,335 L 675,325 L 690,310 L 710,311 L 733,310 L 754,296 L 768,296 L 781,302 L 794,318 L 819,324 L 839,314 L 855,312 L 871,315 L 884,318 L 888,304 L 898,294 L 908,300 L 918,282 L 934,282 L 932,270 L 934,258 L 927,246 L 932,237 L 926,221 L 917,209 L 897,194 L 882,190 L 884,172 L 888,153 L 876,145 L 861,128 L 861,112 L 844,100 L 828,105 L 806,98 L 801,108 L 789,106 L 778,111 L 772,120 L 761,115 L 759,131 L 739,134 L 737,146 L 732,154 L 732,169 L 719,174 L 708,173 L 698,184 L 688,177 L 677,181 L 672,172 L 661,177 L 647,177 L 639,167 L 633,155 L 630,137 L 616,130 L 611,121 Z" />
  <!-- Apprentissage -->
  <path id="Apprentissage" class="inactive" fill="rgba(128,128,128,0.5)" d="M 145,315 L 145,315 L 160,326 L 168,337 L 178,351 L 172,368 L 156,378 L 149,389 L 150,400 L 148,411 L 138,426 L 147,438 L 160,449 L 169,460 L 186,467 L 202,461 L 220,458 L 241,466 L 260,473 L 276,481 L 292,489 L 312,485 L 343,481 L 355,466 L 379,451 L 399,434 L 400,417 L 410,399 L 417,378 L 411,345 L 402,327 L 409,301 L 427,282 L 420,267 L 409,251 L 408,233 L 421,213 L 416,205 L 402,210 L 386,227 L 386,227 L 375,226 L 359,225 L 346,222 L 333,210 L 321,221 L 321,241 L 317,253 L 305,267 L 289,269 L 270,264 L 253,262 L 235,267 L 212,273 L 207,282 L 189,298 L 171,310 Z" />
  <!-- Personnel -->
  <path id="Personnel" class="inactive" fill="rgba(128,128,128,0.5)" d="M 454,250 L 454,250 L 440,269 L 438,289 L 428,300 L 415,315 L 421,337 L 430,361 L 431,382 L 421,398 L 410,422 L 409,445 L 429,451 L 449,463 L 464,471 L 485,447 L 505,443 L 515,459 L 525,454 L 544,446 L 566,441 L 586,443 L 595,421 L 598,400 L 614,400 L 617,360 L 623,324 L 598,314 L 581,297 L 565,279 L 554,249 L 525,240 L 509,239 L 502,248 L 472,243 Z" />
  <!-- Voyage -->
  <path id="Voyage" class="inactive" fill="rgba(128,128,128,0.5)" d="M 626,342 L 626,342 L 631,369 L 627,396 L 648,411 L 664,432 L 676,440 L 690,440 L 710,443 L 731,457 L 744,441 L 757,444 L 770,466 L 761,479 L 758,495 L 778,501 L 784,518 L 798,500 L 813,508 L 818,530 L 834,533 L 859,529 L 871,515 L 892,514 L 910,506 L 930,499 L 941,505 L 964,489 L 979,464 L 984,446 L 981,437 L 965,427 L 947,420 L 928,419 L 914,419 L 901,411 L 892,405 L 891,396 L 884,384 L 884,375 L 884,363 L 881,349 L 886,337 L 873,327 L 861,322 L 848,322 L 833,330 L 819,332 L 803,333 L 793,329 L 777,324 L 772,314 L 763,303 L 753,313 L 740,321 L 724,317 L 699,314 L 690,324 L 675,336 L 662,347 L 642,347 Z" />
  <!-- Carriere -->
  <path id="Carriere" class="inactive" fill="rgba(128,128,128,0.5)" d="M 139,444 L 139,444 L 134,457 L 137,467 L 129,475 L 138,483 L 130,490 L 134,513 L 137,529 L 131,533 L 129,542 L 133,552 L 134,561 L 143,577 L 152,580 L 168,575 L 171,588 L 170,601 L 177,619 L 177,619 L 169,626 L 169,641 L 175,656 L 170,666 L 170,680 L 183,690 L 200,690 L 206,680 L 214,672 L 218,672 L 230,665 L 237,656 L 251,652 L 258,649 L 263,660 L 276,666 L 292,666 L 303,661 L 315,656 L 323,648 L 330,641 L 332,626 L 339,617 L 344,604 L 343,594 L 332,586 L 319,586 L 314,591 L 302,582 L 297,588 L 289,584 L 292,578 L 292,573 L 287,571 L 295,556 L 290,553 L 298,547 L 300,542 L 299,534 L 309,519 L 308,518 L 295,505 L 291,505 L 289,494 L 282,495 L 266,488 L 259,493 L 252,488 L 246,481 L 240,471 L 230,471 L 221,471 L 212,467 L 203,472 L 195,474 L 182,472 L 178,477 L 172,471 L 158,458 L 151,457 Z" />
  <!-- Bien-etre -->
  <path id="Bien-etre" class="inactive" fill="rgba(128,128,128,0.5)" d="M 398,455 L 398,455 L 372,468 L 354,476 L 341,485 L 325,493 L 308,498 L 317,515 L 313,526 L 307,543 L 304,559 L 313,571 L 328,580 L 348,585 L 358,591 L 365,601 L 382,598 L 391,609 L 402,598 L 418,591 L 424,577 L 432,570 L 435,582 L 432,596 L 424,614 L 427,631 L 436,643 L 453,647 L 474,646 L 493,638 L 514,651 L 493,638 L 529,660 L 546,661 L 562,653 L 577,649 L 582,662 L 594,662 L 597,643 L 589,624 L 580,607 L 577,589 L 561,582 L 549,571 L 558,557 L 557,539 L 553,528 L 539,521 L 534,512 L 533,502 L 530,486 L 514,477 L 508,465 L 503,452 L 496,449 L 487,458 L 483,474 L 473,484 L 462,483 L 446,477 L 435,466 L 427,457 L 412,453 Z" />
  <!-- Social -->
  <path id="Social" class="inactive" fill="rgba(128,128,128,0.5)" d="M 592,449 L 592,449 L 556,453 L 531,458 L 522,468 L 538,478 L 548,491 L 548,507 L 564,523 L 564,542 L 565,568 L 582,578 L 590,599 L 599,628 L 611,657 L 631,649 L 644,641 L 659,641 L 674,646 L 692,645 L 707,645 L 734,628 L 744,608 L 760,592 L 774,595 L 786,586 L 799,575 L 810,566 L 817,560 L 815,532 L 806,506 L 787,517 L 773,519 L 769,505 L 753,504 L 751,486 L 759,469 L 749,450 L 733,466 L 711,453 L 699,452 L 670,447 L 653,432 L 636,417 L 620,405 L 609,408 L 601,427 L 595,444 Z" />
</svg>